<?xml version="1.0" encoding="UTF-8" standalone="no"?>
<!DOCTYPE svg PUBLIC "-//W3C//DTD SVG 1.1//EN"
 "http://www.w3.org/Graphics/SVG/1.1/DTD/svg11.dtd">
<!-- Generated by graphviz version 2.44.0 (0)
 -->
<!-- Title: DockerDeps Pages: 1 -->
<svg width="1393pt" height="797pt"
 viewBox="0.00 0.00 1393.00 796.50" xmlns="http://www.w3.org/2000/svg" xmlns:xlink="http://www.w3.org/1999/xlink">
<g id="graph0" class="graph" transform="scale(1 1) rotate(0) translate(4 792.5)">
<title>DockerDeps</title>
<polygon fill="white" stroke="transparent" points="-4,4 -4,-792.5 1389,-792.5 1389,4 -4,4"/>
<g id="clust1" class="cluster">
<title>clusterDockerfile</title>
<polygon fill="none" stroke="royalblue" points="436,-116 436,-709.5 924,-709.5 924,-116 436,-116"/>
<text text-anchor="middle" x="680" y="-694.3" font-family="Times,serif" font-size="14.00">docker/&lt;distro&gt;/Dockerfile</text>
</g>
<g id="clust2" class="cluster">
<title>clusterCache</title>
<polygon fill="none" stroke="royalblue" points="8,-8 8,-83 1192,-83 1192,-8 8,-8"/>
<text text-anchor="middle" x="600" y="-67.8" font-family="Times,serif" font-size="14.00">cache/&lt;distro&gt;/</text>
</g>
<!-- DISTRO_IMG -->
<g id="node1" class="node">
<title>DISTRO_IMG</title>
<path fill="royalblue" stroke="black" d="M562,-784.23C562,-786.03 533.31,-787.5 498,-787.5 462.69,-787.5 434,-786.03 434,-784.23 434,-784.23 434,-754.77 434,-754.77 434,-752.97 462.69,-751.5 498,-751.5 533.31,-751.5 562,-752.97 562,-754.77 562,-754.77 562,-784.23 562,-784.23"/>
<path fill="none" stroke="black" d="M562,-784.23C562,-782.42 533.31,-780.95 498,-780.95 462.69,-780.95 434,-782.42 434,-784.23"/>
<text text-anchor="middle" x="498" y="-765.8" font-family="Times,serif" font-size="14.00">&lt;distro&gt;:latest</text>
</g>
<!-- ENV_IMG -->
<g id="node4" class="node">
<title>ENV_IMG</title>
<path fill="royalblue" stroke="black" d="M670,-673.85C670,-676.49 626.52,-678.63 573,-678.63 519.48,-678.63 476,-676.49 476,-673.85 476,-673.85 476,-630.9 476,-630.9 476,-628.26 519.48,-626.12 573,-626.12 626.52,-626.12 670,-628.26 670,-630.9 670,-630.9 670,-673.85 670,-673.85"/>
<path fill="none" stroke="black" d="M670,-673.85C670,-671.22 626.52,-669.08 573,-669.08 519.48,-669.08 476,-671.22 476,-673.85"/>
<text text-anchor="middle" x="573" y="-656.17" font-family="Times,serif" font-size="14.00">kunpacker:&lt;distro&gt;_env</text>
<text text-anchor="middle" x="573" y="-641.17" font-family="Times,serif" font-size="14.00">env</text>
</g>
<!-- DISTRO_IMG&#45;&gt;ENV_IMG -->
<g id="edge8" class="edge">
<title>DISTRO_IMG&#45;&gt;ENV_IMG</title>
<path fill="none" stroke="black" d="M509.39,-751.01C520.36,-734.17 537.25,-708.24 550.87,-687.34"/>
<polygon fill="black" stroke="black" points="553.96,-689.02 556.48,-678.73 548.09,-685.19 553.96,-689.02"/>
</g>
<!-- PKG -->
<g id="node2" class="node">
<title>PKG</title>
<polygon fill="royalblue" stroke="black" points="715.5,-788.5 584.5,-788.5 580.5,-784.5 580.5,-750.5 711.5,-750.5 715.5,-754.5 715.5,-788.5"/>
<polyline fill="none" stroke="black" points="711.5,-784.5 580.5,-784.5 "/>
<polyline fill="none" stroke="black" points="711.5,-784.5 711.5,-750.5 "/>
<polyline fill="none" stroke="black" points="711.5,-784.5 715.5,-788.5 "/>
<text text-anchor="middle" x="648" y="-773.3" font-family="Times,serif" font-size="14.00">packages</text>
<text text-anchor="middle" x="648" y="-758.3" font-family="Times,serif" font-size="14.00">e.g. cmake, g++</text>
</g>
<!-- PKG&#45;&gt;ENV_IMG -->
<g id="edge9" class="edge">
<title>PKG&#45;&gt;ENV_IMG</title>
<path fill="none" stroke="black" stroke-dasharray="5,2" d="M636.12,-750.26C625.13,-733.39 608.52,-707.9 595.1,-687.3"/>
<polygon fill="black" stroke="black" points="597.96,-685.28 589.57,-678.81 592.1,-689.1 597.96,-685.28"/>
<text text-anchor="middle" x="645.5" y="-721.3" font-family="Times,serif" font-size="14.00">install</text>
</g>
<!-- SRC -->
<g id="node3" class="node">
<title>SRC</title>
<polygon fill="royalblue" stroke="black" points="1005.5,-670.38 1002.5,-674.38 981.5,-674.38 978.5,-670.38 932.5,-670.38 932.5,-634.38 1005.5,-634.38 1005.5,-670.38"/>
<text text-anchor="middle" x="969" y="-648.67" font-family="Times,serif" font-size="14.00">git repo</text>
</g>
<!-- DEVEL_IMG -->
<g id="node5" class="node">
<title>DEVEL_IMG</title>
<path fill="royalblue" stroke="black" d="M858,-570.6C858,-573.24 811.83,-575.38 755,-575.38 698.17,-575.38 652,-573.24 652,-570.6 652,-570.6 652,-527.65 652,-527.65 652,-525.01 698.17,-522.87 755,-522.87 811.83,-522.87 858,-525.01 858,-527.65 858,-527.65 858,-570.6 858,-570.6"/>
<path fill="none" stroke="black" d="M858,-570.6C858,-567.97 811.83,-565.83 755,-565.83 698.17,-565.83 652,-567.97 652,-570.6"/>
<text text-anchor="middle" x="755" y="-552.92" font-family="Times,serif" font-size="14.00">kunpacker:&lt;distro&gt;_devel</text>
<text text-anchor="middle" x="755" y="-537.92" font-family="Times,serif" font-size="14.00">devel</text>
</g>
<!-- SRC&#45;&gt;DEVEL_IMG -->
<g id="edge10" class="edge">
<title>SRC&#45;&gt;DEVEL_IMG</title>
<path fill="none" stroke="black" stroke-dasharray="5,2" d="M942.39,-634.36C937.66,-631.54 932.73,-628.73 928,-626.25 895.59,-609.29 858.61,-592.67 827.18,-579.3"/>
<polygon fill="black" stroke="black" points="828.18,-575.93 817.61,-575.26 825.46,-582.38 828.18,-575.93"/>
<text text-anchor="middle" x="907" y="-597.05" font-family="Times,serif" font-size="14.00">copy</text>
</g>
<!-- ENV_IMG&#45;&gt;DEVEL_IMG -->
<g id="edge1" class="edge">
<title>ENV_IMG&#45;&gt;DEVEL_IMG</title>
<path fill="none" stroke="black" d="M618.46,-626.09C643.42,-612.2 674.53,-594.89 700.75,-580.3"/>
<polygon fill="black" stroke="black" points="702.77,-583.19 709.81,-575.27 699.37,-577.07 702.77,-583.19"/>
</g>
<!-- INSTALL_DEVEL_IMG -->
<g id="node8" class="node">
<title>INSTALL_DEVEL_IMG</title>
<path fill="royalblue" stroke="black" d="M701.5,-378.1C701.5,-380.74 643.9,-382.88 573,-382.88 502.1,-382.88 444.5,-380.74 444.5,-378.1 444.5,-378.1 444.5,-335.15 444.5,-335.15 444.5,-332.51 502.1,-330.37 573,-330.37 643.9,-330.37 701.5,-332.51 701.5,-335.15 701.5,-335.15 701.5,-378.1 701.5,-378.1"/>
<path fill="none" stroke="black" d="M701.5,-378.1C701.5,-375.47 643.9,-373.33 573,-373.33 502.1,-373.33 444.5,-375.47 444.5,-378.1"/>
<text text-anchor="middle" x="573" y="-360.43" font-family="Times,serif" font-size="14.00">kunpacker:&lt;distro&gt;_install_devel</text>
<text text-anchor="middle" x="573" y="-345.43" font-family="Times,serif" font-size="14.00">install_devel</text>
</g>
<!-- ENV_IMG&#45;&gt;INSTALL_DEVEL_IMG -->
<g id="edge5" class="edge">
<title>ENV_IMG&#45;&gt;INSTALL_DEVEL_IMG</title>
<path fill="none" stroke="black" d="M573,-626.08C573,-573.69 573,-453.24 573,-393.12"/>
<polygon fill="black" stroke="black" points="576.5,-392.97 573,-382.97 569.5,-392.97 576.5,-392.97"/>
</g>
<!-- ENV_TAR -->
<g id="node11" class="node">
<title>ENV_TAR</title>
<polygon fill="royalblue" stroke="black" points="130,-52 16,-52 16,-16 136,-16 136,-46 130,-52"/>
<polyline fill="none" stroke="black" points="130,-52 130,-46 "/>
<polyline fill="none" stroke="black" points="136,-46 130,-46 "/>
<text text-anchor="middle" x="76" y="-30.3" font-family="Times,serif" font-size="14.00">docker_env.tar</text>
</g>
<!-- ENV_IMG&#45;&gt;ENV_TAR -->
<g id="edge11" class="edge">
<title>ENV_IMG&#45;&gt;ENV_TAR</title>
<path fill="none" stroke="red" d="M475.78,-643.6C315.41,-629.44 13,-596.59 13,-550.12 13,-550.12 13,-550.12 13,-149.12 13,-115.21 34.59,-81.89 52.49,-60.1"/>
<polygon fill="red" stroke="red" points="55.29,-62.21 59.12,-52.33 49.96,-57.67 55.29,-62.21"/>
<text text-anchor="middle" x="103.5" y="-352.93" font-family="Times,serif" font-size="14.00">make save_&lt;distro&gt;_env</text>
</g>
<!-- BUILD_IMG -->
<g id="node6" class="node">
<title>BUILD_IMG</title>
<path fill="royalblue" stroke="black" d="M916,-481.35C916,-483.99 870.28,-486.13 814,-486.13 757.72,-486.13 712,-483.99 712,-481.35 712,-481.35 712,-438.4 712,-438.4 712,-435.76 757.72,-433.62 814,-433.62 870.28,-433.62 916,-435.76 916,-438.4 916,-438.4 916,-481.35 916,-481.35"/>
<path fill="none" stroke="black" d="M916,-481.35C916,-478.72 870.28,-476.58 814,-476.58 757.72,-476.58 712,-478.72 712,-481.35"/>
<text text-anchor="middle" x="814" y="-463.68" font-family="Times,serif" font-size="14.00">kunpacker:&lt;distro&gt;_build</text>
<text text-anchor="middle" x="814" y="-448.68" font-family="Times,serif" font-size="14.00">build</text>
</g>
<!-- DEVEL_IMG&#45;&gt;BUILD_IMG -->
<g id="edge2" class="edge">
<title>DEVEL_IMG&#45;&gt;BUILD_IMG</title>
<path fill="none" stroke="black" d="M772.07,-522.89C778.06,-514.03 784.89,-503.92 791.27,-494.48"/>
<polygon fill="black" stroke="black" points="794.27,-496.3 796.97,-486.05 788.47,-492.38 794.27,-496.3"/>
</g>
<!-- DEVEL_TAR -->
<g id="node12" class="node">
<title>DEVEL_TAR</title>
<polygon fill="royalblue" stroke="black" points="283.5,-52 154.5,-52 154.5,-16 289.5,-16 289.5,-46 283.5,-52"/>
<polyline fill="none" stroke="black" points="283.5,-52 283.5,-46 "/>
<polyline fill="none" stroke="black" points="289.5,-46 283.5,-46 "/>
<text text-anchor="middle" x="222" y="-30.3" font-family="Times,serif" font-size="14.00">docker_devel.tar</text>
</g>
<!-- DEVEL_IMG&#45;&gt;DEVEL_TAR -->
<g id="edge12" class="edge">
<title>DEVEL_IMG&#45;&gt;DEVEL_TAR</title>
<path fill="none" stroke="red" d="M651.92,-541.51C496.97,-530.17 222,-503.98 222,-460.88 222,-460.88 222,-460.88 222,-149.12 222,-119.36 222,-85.24 222,-62.11"/>
<polygon fill="red" stroke="red" points="225.5,-62.01 222,-52.01 218.5,-62.02 225.5,-62.01"/>
<text text-anchor="middle" x="318.5" y="-301.3" font-family="Times,serif" font-size="14.00">make save_&lt;distro&gt;_devel</text>
</g>
<!-- TEST_IMG -->
<g id="node7" class="node">
<title>TEST_IMG</title>
<path fill="royalblue" stroke="black" d="M916,-378.1C916,-380.74 872.07,-382.88 818,-382.88 763.93,-382.88 720,-380.74 720,-378.1 720,-378.1 720,-335.15 720,-335.15 720,-332.51 763.93,-330.37 818,-330.37 872.07,-330.37 916,-332.51 916,-335.15 916,-335.15 916,-378.1 916,-378.1"/>
<path fill="none" stroke="black" d="M916,-378.1C916,-375.47 872.07,-373.33 818,-373.33 763.93,-373.33 720,-375.47 720,-378.1"/>
<text text-anchor="middle" x="818" y="-360.43" font-family="Times,serif" font-size="14.00">kunpacker:&lt;distro&gt;_test</text>
<text text-anchor="middle" x="818" y="-345.43" font-family="Times,serif" font-size="14.00">test</text>
</g>
<!-- BUILD_IMG&#45;&gt;TEST_IMG -->
<g id="edge3" class="edge">
<title>BUILD_IMG&#45;&gt;TEST_IMG</title>
<path fill="none" stroke="black" d="M815,-433.59C815.48,-421.38 816.07,-406.54 816.59,-393.22"/>
<polygon fill="black" stroke="black" points="820.1,-393.07 817,-382.94 813.11,-392.8 820.1,-393.07"/>
</g>
<!-- BUILD_IMG&#45;&gt;INSTALL_DEVEL_IMG -->
<g id="edge4" class="edge">
<title>BUILD_IMG&#45;&gt;INSTALL_DEVEL_IMG</title>
<path fill="none" stroke="black" stroke-dasharray="5,2" d="M754.12,-433.72C720.21,-419.47 677.63,-401.58 642.28,-386.73"/>
<polygon fill="black" stroke="black" points="643.57,-383.48 632.99,-382.83 640.86,-389.93 643.57,-383.48"/>
<text text-anchor="middle" x="748" y="-404.55" font-family="Times,serif" font-size="14.00">copy install</text>
</g>
<!-- BUILD_TAR -->
<g id="node13" class="node">
<title>BUILD_TAR</title>
<polygon fill="royalblue" stroke="black" points="1177.5,-52 1050.5,-52 1050.5,-16 1183.5,-16 1183.5,-46 1177.5,-52"/>
<polyline fill="none" stroke="black" points="1177.5,-52 1177.5,-46 "/>
<polyline fill="none" stroke="black" points="1183.5,-46 1177.5,-46 "/>
<text text-anchor="middle" x="1117" y="-30.3" font-family="Times,serif" font-size="14.00">docker_build.tar</text>
</g>
<!-- BUILD_IMG&#45;&gt;BUILD_TAR -->
<g id="edge13" class="edge">
<title>BUILD_IMG&#45;&gt;BUILD_TAR</title>
<path fill="none" stroke="red" d="M916.08,-451.71C1028.64,-440.92 1194,-415.27 1194,-357.62 1194,-357.62 1194,-357.62 1194,-149.12 1194,-113.42 1167.78,-80.52 1145.94,-59.32"/>
<polygon fill="red" stroke="red" points="1148.15,-56.59 1138.45,-52.32 1143.37,-61.7 1148.15,-56.59"/>
<text text-anchor="middle" x="1289.5" y="-249.68" font-family="Times,serif" font-size="14.00">make save_&lt;distro&gt;_build</text>
</g>
<!-- TEST_TAR -->
<g id="node14" class="node">
<title>TEST_TAR</title>
<polygon fill="royalblue" stroke="black" points="1026.5,-52 907.5,-52 907.5,-16 1032.5,-16 1032.5,-46 1026.5,-52"/>
<polyline fill="none" stroke="black" points="1026.5,-52 1026.5,-46 "/>
<polyline fill="none" stroke="black" points="1032.5,-46 1026.5,-46 "/>
<text text-anchor="middle" x="970" y="-30.3" font-family="Times,serif" font-size="14.00">docker_test.tar</text>
</g>
<!-- TEST_IMG&#45;&gt;TEST_TAR -->
<g id="edge14" class="edge">
<title>TEST_IMG&#45;&gt;TEST_TAR</title>
<path fill="none" stroke="red" d="M860.28,-330.41C898.09,-305.14 950.98,-262.42 974,-209.25 994.92,-160.93 985.55,-97.8 977.41,-62.31"/>
<polygon fill="red" stroke="red" points="980.72,-61.12 974.95,-52.23 973.92,-62.77 980.72,-61.12"/>
<text text-anchor="middle" x="1069.5" y="-198.05" font-family="Times,serif" font-size="14.00">make save_&lt;distro&gt;_test</text>
</g>
<!-- INSTALL_BUILD_IMG -->
<g id="node9" class="node">
<title>INSTALL_BUILD_IMG</title>
<path fill="royalblue" stroke="black" d="M700.5,-274.85C700.5,-277.49 643.35,-279.63 573,-279.63 502.65,-279.63 445.5,-277.49 445.5,-274.85 445.5,-274.85 445.5,-231.9 445.5,-231.9 445.5,-229.26 502.65,-227.12 573,-227.12 643.35,-227.12 700.5,-229.26 700.5,-231.9 700.5,-231.9 700.5,-274.85 700.5,-274.85"/>
<path fill="none" stroke="black" d="M700.5,-274.85C700.5,-272.22 643.35,-270.08 573,-270.08 502.65,-270.08 445.5,-272.22 445.5,-274.85"/>
<text text-anchor="middle" x="573" y="-257.18" font-family="Times,serif" font-size="14.00">kunpacker:&lt;distro&gt;_install_build</text>
<text text-anchor="middle" x="573" y="-242.18" font-family="Times,serif" font-size="14.00">install_build</text>
</g>
<!-- INSTALL_DEVEL_IMG&#45;&gt;INSTALL_BUILD_IMG -->
<g id="edge6" class="edge">
<title>INSTALL_DEVEL_IMG&#45;&gt;INSTALL_BUILD_IMG</title>
<path fill="none" stroke="black" d="M573,-330.34C573,-318.13 573,-303.29 573,-289.97"/>
<polygon fill="black" stroke="black" points="576.5,-289.69 573,-279.69 569.5,-289.69 576.5,-289.69"/>
</g>
<!-- INSTALL_DEVEL_TAR -->
<g id="node15" class="node">
<title>INSTALL_DEVEL_TAR</title>
<polygon fill="royalblue" stroke="black" points="884,-52 704,-52 704,-16 890,-16 890,-46 884,-52"/>
<polyline fill="none" stroke="black" points="884,-52 884,-46 "/>
<polyline fill="none" stroke="black" points="890,-46 884,-46 "/>
<text text-anchor="middle" x="797" y="-30.3" font-family="Times,serif" font-size="14.00">docker_install_devel.tar</text>
</g>
<!-- INSTALL_DEVEL_IMG&#45;&gt;INSTALL_DEVEL_TAR -->
<g id="edge15" class="edge">
<title>INSTALL_DEVEL_IMG&#45;&gt;INSTALL_DEVEL_TAR</title>
<path fill="none" stroke="red" d="M644.82,-330.39C668.97,-318.51 693.85,-301.9 710,-279.5 732.54,-248.23 700.29,-222.97 726,-194.25 744.28,-173.82 767.77,-197.57 785,-176.25 810.88,-144.23 808.06,-93.75 803,-62.6"/>
<polygon fill="red" stroke="red" points="806.39,-61.67 801.16,-52.45 799.5,-62.92 806.39,-61.67"/>
<text text-anchor="middle" x="848" y="-198.05" font-family="Times,serif" font-size="14.00">make save_&lt;distro&gt;_install_devel</text>
</g>
<!-- INSTALL_TEST_IMG -->
<g id="node10" class="node">
<title>INSTALL_TEST_IMG</title>
<path fill="royalblue" stroke="black" d="M775.5,-171.6C775.5,-174.24 720.15,-176.38 652,-176.38 583.85,-176.38 528.5,-174.24 528.5,-171.6 528.5,-171.6 528.5,-128.65 528.5,-128.65 528.5,-126.01 583.85,-123.87 652,-123.87 720.15,-123.87 775.5,-126.01 775.5,-128.65 775.5,-128.65 775.5,-171.6 775.5,-171.6"/>
<path fill="none" stroke="black" d="M775.5,-171.6C775.5,-168.97 720.15,-166.83 652,-166.83 583.85,-166.83 528.5,-168.97 528.5,-171.6"/>
<text text-anchor="middle" x="652" y="-153.93" font-family="Times,serif" font-size="14.00">kunpacker:&lt;distro&gt;_install_test</text>
<text text-anchor="middle" x="652" y="-138.93" font-family="Times,serif" font-size="14.00">install_test</text>
</g>
<!-- INSTALL_BUILD_IMG&#45;&gt;INSTALL_TEST_IMG -->
<g id="edge7" class="edge">
<title>INSTALL_BUILD_IMG&#45;&gt;INSTALL_TEST_IMG</title>
<path fill="none" stroke="black" d="M592.73,-227.09C602.82,-214.16 615.22,-198.26 626.07,-184.36"/>
<polygon fill="black" stroke="black" points="628.85,-186.48 632.25,-176.44 623.34,-182.17 628.85,-186.48"/>
</g>
<!-- INSTALL_BUILD_TAR -->
<g id="node16" class="node">
<title>INSTALL_BUILD_TAR</title>
<polygon fill="royalblue" stroke="black" points="486,-52 308,-52 308,-16 492,-16 492,-46 486,-52"/>
<polyline fill="none" stroke="black" points="486,-52 486,-46 "/>
<polyline fill="none" stroke="black" points="492,-46 486,-46 "/>
<text text-anchor="middle" x="400" y="-30.3" font-family="Times,serif" font-size="14.00">docker_install_build.tar</text>
</g>
<!-- INSTALL_BUILD_IMG&#45;&gt;INSTALL_BUILD_TAR -->
<g id="edge16" class="edge">
<title>INSTALL_BUILD_IMG&#45;&gt;INSTALL_BUILD_TAR</title>
<path fill="none" stroke="red" d="M445.46,-235.17C375.68,-222.86 299.18,-203.59 278,-176.25 261.6,-155.08 265.34,-139.6 278,-116 292.4,-89.16 320.03,-69.71 345.37,-56.6"/>
<polygon fill="red" stroke="red" points="347.15,-59.62 354.57,-52.05 344.05,-53.34 347.15,-59.62"/>
<text text-anchor="middle" x="399" y="-146.43" font-family="Times,serif" font-size="14.00">make save_&lt;distro&gt;_install_build</text>
</g>
<!-- INSTALL_TEST_TAR -->
<g id="node17" class="node">
<title>INSTALL_TEST_TAR</title>
<polygon fill="royalblue" stroke="black" points="680,-52 510,-52 510,-16 686,-16 686,-46 680,-52"/>
<polyline fill="none" stroke="black" points="680,-52 680,-46 "/>
<polyline fill="none" stroke="black" points="686,-46 680,-46 "/>
<text text-anchor="middle" x="598" y="-30.3" font-family="Times,serif" font-size="14.00">docker_install_test.tar</text>
</g>
<!-- INSTALL_TEST_IMG&#45;&gt;INSTALL_TEST_TAR -->
<g id="edge17" class="edge">
<title>INSTALL_TEST_IMG&#45;&gt;INSTALL_TEST_TAR</title>
<path fill="none" stroke="red" d="M573.85,-124.24C566.85,-119.23 560.67,-113.21 556,-106 546.15,-90.78 556.31,-73.26 569.09,-59.43"/>
<polygon fill="red" stroke="red" points="571.76,-61.71 576.36,-52.16 566.81,-56.76 571.76,-61.71"/>
<text text-anchor="middle" x="673" y="-94.8" font-family="Times,serif" font-size="14.00">make save_&lt;distro&gt;_install_test</text>
</g>
</g>
</svg>
